<?xml version="1.0" encoding="utf-8"?>
<!-- Generator: Adobe Illustrator 21.0.0, SVG Export Plug-In . SVG Version: 6.00 Build 0)  -->
<svg version="1.1" xmlns="http://www.w3.org/2000/svg" xmlns:xlink="http://www.w3.org/1999/xlink" x="0px" y="0px"
	 viewBox="0 0 494 170" style="enable-background:new 0 0 494 170;" xml:space="preserve">
<style type="text/css">
	.st0{fill:none;}
	.st1{fill:#FBB03B;}
	.st2{font-family:'BerlinerFraktur-Regular';}
	.st3{font-size:60px;}
	.st4{fill:#F2F2F2;}
	.st5{fill:#333333;}
	.st6{fill:#1A1A1A;}
	.st7{fill:#681A22;}
	.st8{fill:#34080F;}
	.st9{fill:#AE885D;}
	.st10{fill:#EDC6B0;}
	.st11{fill:#983343;}
	.st12{fill:#FFFFFF;}
	.st13{fill:#965E42;}
	.st14{fill:#B47957;}
	.st15{fill:#4D4D4D;}
	.st16{fill:#9F7254;}
</style>
<g id="Calque_18">
	<rect x="113.5" y="14.2" class="st0" width="411.5" height="148.8"/>
	<text transform="matrix(1 0 0 1 117.478 79.998)"><tspan x="0" y="0" class="st1 st2 st3">C</tspan><tspan x="52.3" y="0" class="st4 st2 st3">heval</tspan><tspan x="71" y="72" class="st1 st2 st3">N</tspan><tspan x="139.4" y="72" class="st4 st2 st3">ouvelles</tspan></text>
</g>
<g id="Calque_17">
</g>
<g id="Calque_14">
	<g>
		<path class="st5" d="M156.1,143c-5.5-3-73,1-73,1l-1.4,19h89.8C168.4,152.2,160,145.1,156.1,143z"/>
	</g>
	<g>
		<path class="st6" d="M183.3,148c15-57.6-20.9-38.3-20.9-38.3L148.7,163h30.2C180.3,158.7,181.8,153.7,183.3,148z"/>
	</g>
	<g>
		<path d="M165.3,108.9c-7,0.5-43.6,26.5-43.6,26.5l-12,18.5c0,0,2.8,4.9,6.7,9h20.5c17.1-11.4,47.1-37.3,47.5-45.1
			C184.8,107.9,172.3,108.4,165.3,108.9z"/>
	</g>
</g>
<g id="Calque_11">
	<path class="st7" d="M75.7,65c0,0,9,1.3,14,8.3c6,4,9,7,9,7l13,4.5l22,2.5c0,0,4.5,17-4,19c-8.5,2-16.5,3-20,3
		c-3.5,0-22.2-7.2-22.2-7.2L70.2,62.4L75.7,65"/>
</g>
<g id="Calque_9">
	<g>
		<path class="st8" d="M113.5,123.7c-2.5-4-7.5-5.5-7.5-5.5s0.8-8.8,0.8-9.8c0-1-0.5-1-6.5-7c0.5-21-22.5-36-22.5-36s-46.6,4-49.6,5
			c-3,1-6.1,4.9-6.1,4.9L44.6,163h86.1C126.7,153.6,115.5,127,113.5,123.7z"/>
	</g>
</g>
<g id="Calque_16">
	<g>
		<path class="st9" d="M37.9,134.2c-11.5-3.5-20.3-26.8-20.3-26.8S-6.8,125,15.7,163h91.7C95.7,157.7,55.5,139.6,37.9,134.2z"/>
	</g>
</g>
<g id="Calque_13">
	<path class="st10" d="M125.3,77.9v-2.5c0,0,3.5-2.5,3.5-6.5c0-4-1.8-8.8-3.8-10.8c-2-2-4-5-5.5-4.5s-6,1-6,4c0,3-2.5,5-2.5,5
		s-2,5.5,2.5,8.5c0.5,3.5,0.5,3.5,0.5,3.5L125.3,77.9z"/>
</g>
<g id="Calque_8">
	<path class="st11" d="M70.7,68.4c0,0,4,23.5,5.5,25s19.5,14,19.5,14s-5-21.5-6-25c-1-3.5-7-12.5-20-16.5S70.7,68.4,70.7,68.4z"/>
</g>
<g id="Calque_4">
	<path d="M98.5,51.6c0,0-2,8.5,5,11.5c-9,2-17.5-3-17.5-3l3.5-10.5L98.5,51.6z"/>
	<g>
		<ellipse class="st12" cx="95.7" cy="61.1" rx="1.5" ry="0.8"/>
	</g>
	<g>
		<ellipse class="st12" cx="98.2" cy="61.6" rx="1.5" ry="0.8"/>
	</g>
	<g>
		<ellipse class="st12" cx="93.2" cy="60.6" rx="1.5" ry="0.8"/>
	</g>
	<g>
		<ellipse class="st12" cx="90.7" cy="60.1" rx="1.5" ry="0.8"/>
	</g>
	<path d="M33.5,15.7c1.1,2.1,0.6,3.6-2.9,1.7c1,3.8,1.2,6.4-1.2,3.2c0.5,6.2-0.1,6.5-5.7,2.9c3.8,6,5.1,8.9-2,6.3
		c7.9,7.6,7.4,9.6-3.2,11.9c7.6,1.1,5.1,2.5-1.8,4.8c6.9,1,9.3,2.9,6.8,9.1c5.5-2.4,3.1-0.5,1.7,4.5c1.3-0.7,0.6,1.7-0.6,4.4
		c6.3,2.3,9.2,4,9.2,5.6c0.7-0.8,3.3-3.5,6.2-6.3c2.8-3.4,6-6.9,10-7c0.1-4.6,1-5.9,1.9-2.2c0.5-6.7,2.8-8.2,4.8-6.9
		c-2-0.2-4.3,2.4-7.5,9.2c1.3-5.6,4-6.8,6.7-6.6c-0.3-1.3-0.6-1.2-0.5,0.1c-4.3-0.9-8.2-0.5-9.9,6.7c1.9-9.7,5.6-9.9,10.2-8.4
		c-1.6-1.1-2.1-0.6-0.4,0c-6-2.7-9.8-5.4-5.6-17.4c-5.3,8-3.6,8.5,5.3,6.8c-7.9,0.3-8.7-1.6-3.1-8.7c-8.1,2.1-10-1.1-10.5-9.2
		c-3.1,1.3-4.8-2.3-5.7-5.7c1.1,2.9,1.3,3.7,0.9,2.7C36.1,18,35.1,16.8,33.5,15.7z"/>
</g>
<g id="Calque_6">
	<path class="st13" d="M33.1,32.3l-5.5,47.6c0,0,37.6,10.5,44.1,2c0-9-1-28-1-28L33.1,32.3z"/>
</g>
<g id="Calque_7">
	<path class="st11" d="M26.1,64.9c0,0,18.5,0.5,28,7.5s41.1,31,43.6,33.5c2.5,2.5,5.5,16,5.5,16s-3,2.5-7,2c-3-3.5-2.3-5.3-4.3-6.8
		c-2-1.5-40.1-24-42.1-26.5c-2-2.5-12.5-13.5-23.5-18.5C25.4,66.1,26.1,64.9,26.1,64.9z"/>
</g>
<g id="Calque_2">
	<g id="XMLID_1_">
		<g>
			<path class="st6" d="M112.5,50.6c0,0,2,4.5-4,4.5c-6,0-17-2-17.5-1.5c-8.5,9,8.5,8.5,11,8.5s5.5,2,2.5,3.5s-8.5,3-11.5,0.5
				c-3-2.5-5.5-4-6.5-3.5c0,0-0.2,0.1-0.6,0.2c-2.1-2.3-4.7-7.5,3.3-15.4c1.6-1.6,0.5-6.5,5.6-10.8c0,0,0.1,0,0.1,0
				c5,0.5,6,0.5,6,0.5s6.5-0.5,7.5,2.5c1,3,0.5,6,1,6.5c0.5,0.5,0.6,0.7,2,3.5C112,50.6,112.5,50.6,112.5,50.6z"/>
			<path class="st14" d="M94.9,36.6c-5.1,4.3-4.1,9.2-5.6,10.8c-8,8-5.4,13.1-3.3,15.4C83.6,63.4,75,66,73.4,67.1
				c-1.5,1-9.5,1-9.5,1s-15.5,1.5-29.5-13c-7-6-1-28,0-29c-1.5-1-17.5-12-16-20c2.5,0,18,11.5,18,11.5l4-3.5l1-8l8,6.5l6,3.5
				c0,0,1,0.3,2.5,0.7c1,2.7,4.8,10.1,17.7,10C77.8,29.1,85,35.5,94.9,36.6z"/>
			<path class="st12" d="M75.6,26.8c-12.9,0.1-16.7-7.3-17.7-10c5.2,1.6,16.6,5.4,17,9.3C74.9,26.1,75.2,26.3,75.6,26.8z"/>
		</g>
		<g>
		</g>
	</g>
</g>
<g id="Calque_3">
	<g>
		<path class="st12" d="M53.1,36.5c-3.6,0-5.7-2.2-6.2-6.6c2-2.6,4.1-3.9,6.2-3.9c4.6,0,8.1,6.2,8.8,7.6
			C60.9,34.2,56.8,36.5,53.1,36.5C53.1,36.5,53.1,36.5,53.1,36.5z"/>
		<path d="M53.2,26.3c4.2,0,7.4,5.4,8.4,7.2c-1.3,0.8-5.1,2.7-8.4,2.7c-3.4,0-5.3-2-5.8-6.2C49.2,27.6,51.2,26.3,53.2,26.3
			 M53.2,25.7c-2,0-4.2,1.1-6.5,4.1c0.5,5.5,3.4,7.1,6.5,7.1c4.4,0,9.3-3.1,9.3-3.1S58.6,25.7,53.2,25.7L53.2,25.7z"/>
	</g>
	<circle cx="53.9" cy="31.8" r="3.1"/>
	<path d="M102.7,47.3c0.2-0.3-1-1-1-1s3.5-6.4-3-7c-5-0.5-4,5.5-2.5,6c1.5,0.5,4,1.5,4.5,1.5S102.5,47.8,102.7,47.3z"/>
</g>
<g id="Calque_5">
	<path d="M28.8,15.2c5.8-0.4,5.3,0.2-0.7,2.6c5-0.3,2,5.5-2,5.5c3.5,2.5,7.3,0.6,5.3,4.9c3.5-2.4,4.2-1.9,2.1,1.7
		c2.1-3.5,3.7-3.5,4,0.8c1.6-2.4,2.9-3.6,3.8-3.7c1-0.1,1.6,1,1.9,3.3c0.2-3.1,0.6-5,0.8-5.5c1.6-0.9,3.1-0.4,3.8,2.3
		c1-4.1,1.3-6.1,0.1-6.8c3.8-1.3,6.2-1.3,7.3-0.1c1.2-1.7,1.2-2.2-0.5-2.4c3.7,0.2,5.6,0.6,7.3,1.4c1.2-0.1,3.4,0.6,5.5,1.3
		c-0.6-0.7,1.4,0.4,5.8,2.9c-0.8-0.2,0.9,0.9,3.3,2.3c-2.4-1.4-2.1-2.9,0.3-3.8c-3.3-2.4-4.5-4.1-5.4-5.2C67,17,64.9,16,64.3,13
		c-1.9,1.2-3.3,0.6-5.4-2.4c0.8,1.6,0.7,0.8,0.6-2.9c-2,2.7-4,2.5-6.9,0.2c0.9,1.3,1.1,0.4,1.2-2.8c-1.4,2.9-3.7,3.7-6.8,3.8
		c-1,1.3-2.8,1.7-4.8,1.8c-1.7,0.2-3.6,0.2-5.8-0.1C36.9,13.7,34.6,14.8,28.8,15.2z"/>
</g>
<g id="Calque_15">
</g>
<g id="Calque_12">
	<path class="st10" d="M98.7,127l10.5-1.5c0,0,1.5-2,8.5-2c7,0,13.5-1.5,15.5,2.5c1,2-1.5,3.5-1.5,3.5s2,4-1,6c-0.5,2,0,4.5-3,5
		c0.5,2,0.5,3.5-10,4c-7.6,0.4-13-1-13.5-1c-0.5,0-10-2.5-10-2.5L98.7,127z"/>
</g>
<g id="Calque_10">
	<path class="st7" d="M24.1,72.9c0,0,22-2,25,33c1.2,13.6,2,14.5,2,14.5s12,5.5,29,6c-1,10,2,26.5,2,26.5s-39.6-3.5-44.6-5.5
		c-5-2-12.5-8-14-12.5C22.1,130.5,10.6,82.4,24.1,72.9z"/>
	<path class="st11" d="M83.7,123.9c0,0-13,3.5-2.5,29.5c6,1.5,16.5,1.5,18,1.5c-2-2.5-6-20,1.5-29C85.2,124.4,83.7,123.9,83.7,123.9
		z"/>
	<path class="st11" d="M112.7,72.4l-0.5,14c0,0,14.5,9,21.5,1c1-10.5,0-12,0-12S122.2,79.4,112.7,72.4z"/>
	<g id="XMLID_2_">
		<g>
			<path class="st15" d="M142.8,60.4c0,0,2,3.5-1,4.5c0,0-0.1,0-0.1,0c-0.3-2.6,0-3.9,0.5-4.6C142.6,60.3,142.8,60.4,142.8,60.4z"/>
			<path class="st16" d="M141.7,64.9c-1.6-0.2-5.3-0.6-9.6-1.1c-0.7-2-0.2-3.5,0.5-4.5c4.3,0.5,8.1,0.9,9.6,1.1
				C141.7,60.9,141.3,62.2,141.7,64.9z"/>
			<path class="st16" d="M128.4,58.8c-0.8,1.2-1.2,2.7-0.6,4.4c-10.3-1.3-22.1-2.8-22.1-2.8s-2.5-2-0.5-4l8,1c0,0,2,1.5,4.5,0.5
				C119,57.9,123.6,58.3,128.4,58.8z"/>
			<path class="st1" d="M128.4,58.8c1.4,0.1,2.8,0.3,4.2,0.4c-0.7,1-1.2,2.5-0.5,4.5c-1.4-0.2-2.8-0.3-4.2-0.5
				C127.2,61.5,127.7,60,128.4,58.8z"/>
		</g>
		<g>
		</g>
	</g>
</g>
</svg>
